<svg xmlns="http://www.w3.org/2000/svg" width="24" height="24"><defs><clipPath id="a" clipPathUnits="userSpaceOnUse"><path d="M-1231.1-237.215H644.422v701.977H-1231.1Z"/></clipPath></defs><path d="M0 0h69.92c7.03 0 12.917 6.4 12.276 13.449-3.619 39.39-7.252 78.781-10.871 118.176H-97.68c-29.153-34.955-58.297-69.908-87.442-104.857C-193.994 16.135-187.789 0-173.573 0h55.548c3.664 0 7.133 1.813 9.452 4.602 15.303 18.341 30.594 36.68 45.898 55.022 3.348 4.016 8.351 6.228 13.603 6.228h18.758c8.148 0 14.845-5.644 15.596-13.812 1.285-14.057 2.585-28.117 3.88-42.171C-10.318 4.192-5.669 0 0 0m-18.691 226.347c-17.12-20.525-34.23-41.052-51.351-61.573H68.277c-1.723 18.775-3.453 37.558-5.175 56.337-.525 5.676-5.177 9.66-10.853 9.66H-9.247a12.28 12.28 0 0 1-9.444-4.424M-233.335 0h-185.86c-11.193 0-18.094 10.632-14.49 21.095l38.003 110.53h93.324c-4.342-12.623-8.679-25.248-13.022-37.868-3.596-10.458 3.463-21.091 14.637-21.091h79.187c11.193 0 18.323-10.61 14.732-21.056l-14.85-43.176C-223.368 3.514-228.098 0-233.335 0m-57.62 164.774 17.643 51.317c2.505 7.268-2.377 14.68-10.167 14.68h-69.306c-5.248 0-9.999-3.502-11.696-8.414-6.597-19.197-13.199-38.39-19.8-57.583zM282.271 0c-4.867 18.213-9.74 36.416-14.613 54.628-1.85 6.906-7.662 11.22-14.736 11.22-6.752-.004-13.503-.01-20.255-.01-7.968-.004-14.839-5.014-17.276-12.102-5.192-15.101-10.383-30.204-15.57-45.302C198.126 3.514 193.396 0 188.15 0h-63.195c-11.193 0-18.1 10.632-14.497 21.095 8.83 25.672 17.658 51.344 26.483 77.019 6.762 19.662 25.566 33.511 46.531 33.511H313.71c9.002 0 16.818 7.304 17.648 16.268.862 9.364-6.19 16.881-15.594 16.881H159.872c6.597 19.193 13.195 38.386 19.8 57.583 1.693 4.912 6.444 8.414 11.692 8.414h137.242c46.728 0 81.82-38.43 77.491-84.941-2.916-31.413-23.09-58.275-50.413-71.392 6.66-24.714 13.301-49.436 19.961-74.438zM-926.38 131.625h130.239c8.999 0 16.815 7.305 17.645 16.269.862 9.364-6.19 16.88-15.592 16.88h-155.895c6.597 19.193 13.199 38.383 19.8 57.584 1.695 4.912 6.447 8.413 11.692 8.413h137.244c46.726 0 81.819-38.43 77.488-84.941-4.13-44.546-42.964-79.942-87.69-79.963-28.58-.015-57.158-.023-85.736-.03-7.97-.002-14.837-5.012-17.276-12.101-5.192-15.1-10.382-30.204-15.573-45.301C-911.726 3.515-916.46 0-921.696 0H-984.9c-11.192 0-18.094 10.633-14.497 21.095l26.486 77.017c6.76 19.665 25.564 33.513 46.53 33.513m478.941 33.149c-17.799 45.723-61.896 73.087-110.215 71.823-47.706-1.231-91.23-29.727-112.866-71.823zm7.573-33.15c5.677-72.506-53.868-136.427-125.993-138.653-76.224-2.36-131.379 64.13-116.322 138.654zM445.054 3.71c-13.42 0-23.605 11.304-23.605 24.396 0 13.117 10.184 24.434 23.605 24.434 13.392 0 23.591-11.317 23.591-24.434 0-13.092-10.199-24.396-23.59-24.396m0 52.532c-15.54 0-28.134-12.584-28.134-28.136C416.921 12.583 429.514 0 445.054 0c15.538 0 28.122 12.583 28.122 28.106 0 15.552-12.584 28.136-28.122 28.136m-6.62-26.27V41.12h8.998c3.83 0 7.851-.775 7.851-5.586 0-4.813-4.02-5.562-7.85-5.562zm21.004 6.037c-.31 6.64-5.673 7.837-11.14 7.837h-13.724V12.46h3.86v14.465h7.06c2.995-4.823 5.982-9.646 8.975-14.465h4.601c-3.166 4.833-6.325 9.676-9.492 14.513 5.978.246 10.162 2.344 9.86 9.035" clip-path="url(#a)" style="fill:#231f20;fill-opacity:1;fill-rule:nonzero;stroke:none" transform="matrix(.01629 0 0 -.01629 16.293 13.87)"/></svg>